<svg width="3531" height="941" viewBox="0 0 3531 941" fill="none" xmlns="http://www.w3.org/2000/svg">
<path d="M366.784 508.826L617.542 363.716C676.095 329.347 696.463 254.247 662.095 195.693C627.726 137.14 552.626 116.774 494.069 151.142L61.2881 400.63L366.784 508.826Z" fill="#EA4335"/>
<path d="M555.173 880.51C597.178 880.51 639.184 858.872 662.094 819.41C696.463 760.857 676.099 685.757 617.542 651.388L184.761 401.902C126.208 367.534 51.1038 387.9 16.7354 446.454C-17.6289 505.007 2.73487 580.108 61.2877 614.477L494.073 863.962C513.167 875.42 534.805 880.51 555.173 880.51Z" fill="#4285F4"/>
<path d="M985.411 880.509C1005.77 880.509 1027.42 875.419 1046.51 863.962L1479.29 614.476L1177.62 503.733L923.038 650.114C864.485 684.482 844.117 759.587 878.485 818.14C901.4 858.872 943.406 880.509 985.411 880.509Z" fill="#FBBC04"/>
<path d="M1418.2 631.024C1460.2 631.024 1502.21 609.382 1525.12 569.924C1559.49 511.37 1539.13 436.269 1480.57 401.901L1047.79 152.414C989.234 118.045 914.134 138.412 879.766 196.965C845.397 255.518 865.761 330.619 924.314 364.987L1357.1 614.476C1376.19 625.93 1397.83 631.024 1418.2 631.024Z" fill="#34A853"/>
<path d="M1812.55 512.344C1777.09 512.344 1744.41 503.826 1714.51 486.79C1684.61 469.754 1660.79 446.459 1643.06 416.907C1625.68 387.007 1616.98 353.803 1616.98 317.297C1616.98 280.791 1625.68 247.762 1643.06 218.209C1660.79 188.309 1684.61 164.841 1714.51 147.805C1744.41 130.769 1777.09 122.25 1812.55 122.25C1840.71 122.25 1866.96 127.292 1891.3 137.374C1915.64 147.457 1935.98 161.538 1952.32 179.617L1911.64 220.295C1899.47 206.736 1884.87 196.306 1867.83 189.004C1851.14 181.703 1832.54 178.053 1812.03 178.053C1788.04 178.053 1765.62 183.789 1744.75 195.263C1723.89 206.736 1707.21 223.077 1694.69 244.285C1682.17 265.493 1675.91 289.831 1675.91 317.297C1675.91 344.764 1682.17 369.101 1694.69 390.31C1707.21 411.518 1723.89 427.859 1744.75 439.332C1765.62 450.805 1788.21 456.542 1812.55 456.542C1834.8 456.542 1853.4 453.239 1868.35 446.633C1883.3 440.027 1896.69 431.162 1908.51 420.036C1916.16 412.387 1922.59 402.826 1927.81 391.353C1933.37 379.879 1937.02 367.363 1938.76 353.803H1812.03V301.652H1994.04C1995.78 311.387 1996.65 321.469 1996.65 331.9C1996.65 355.542 1993 378.315 1985.69 400.218C1978.39 421.774 1966.75 440.549 1950.75 456.542C1915.64 493.744 1869.57 512.344 1812.55 512.344ZM2064.07 130.595H2183.5C2222.09 130.595 2255.82 138.417 2284.67 154.063C2313.53 169.708 2335.61 191.786 2350.91 220.295C2366.55 248.457 2374.37 280.791 2374.37 317.297C2374.37 353.803 2366.55 386.311 2350.91 414.821C2335.61 442.983 2313.53 464.886 2284.67 480.532C2255.82 496.177 2222.09 504 2183.5 504H2064.07V130.595ZM2182.46 448.198C2224.18 448.198 2256.69 436.724 2279.98 413.778C2303.62 390.483 2315.44 358.323 2315.44 317.297C2315.44 276.619 2303.62 244.633 2279.98 221.338C2256.69 198.044 2224.18 186.397 2182.46 186.397H2122.48V448.198H2182.46ZM2617.74 512.344C2582.28 512.344 2549.6 503.826 2519.7 486.79C2489.8 469.754 2465.98 446.459 2448.25 416.907C2430.87 387.007 2422.17 353.803 2422.17 317.297C2422.17 280.791 2430.87 247.762 2448.25 218.209C2465.98 188.309 2489.8 164.841 2519.7 147.805C2549.6 130.769 2582.28 122.25 2617.74 122.25C2645.91 122.25 2672.15 127.292 2696.49 137.374C2720.83 147.457 2741.17 161.538 2757.51 179.617L2716.83 220.295C2704.66 206.736 2690.06 196.306 2673.02 189.004C2656.34 181.703 2637.73 178.053 2617.22 178.053C2593.23 178.053 2570.81 183.789 2549.95 195.263C2529.09 206.736 2512.4 223.077 2499.88 244.285C2487.36 265.493 2481.11 289.831 2481.11 317.297C2481.11 344.764 2487.36 369.101 2499.88 390.31C2512.4 411.518 2529.09 427.859 2549.95 439.332C2570.81 450.805 2593.41 456.542 2617.74 456.542C2639.99 456.542 2658.6 453.239 2673.55 446.633C2688.5 440.027 2701.88 431.162 2713.7 420.036C2721.35 412.387 2727.78 402.826 2733 391.353C2738.56 379.879 2742.21 367.363 2743.95 353.803H2617.22V301.652H2799.23C2800.97 311.387 2801.84 321.469 2801.84 331.9C2801.84 355.542 2798.19 378.315 2790.89 400.218C2783.59 421.774 2771.94 440.549 2755.95 456.542C2720.83 493.744 2674.76 512.344 2617.74 512.344ZM2981.97 512.344C2955.2 512.344 2931.21 506.26 2910 494.091C2888.8 481.575 2872.28 464.539 2860.46 442.983C2848.64 421.427 2842.73 397.437 2842.73 371.013C2842.73 344.59 2848.64 320.6 2860.46 299.044C2872.28 277.488 2888.8 260.626 2910 248.457C2931.21 235.941 2955.2 229.683 2981.97 229.683C3008.74 229.683 3032.73 235.941 3053.94 248.457C3075.15 260.974 3091.67 278.01 3103.49 299.566C3115.31 321.122 3121.22 344.938 3121.22 371.013C3121.22 397.437 3115.31 421.427 3103.49 442.983C3091.67 464.539 3075.15 481.575 3053.94 494.091C3032.73 506.26 3008.74 512.344 2981.97 512.344ZM2981.97 459.671C2996.58 459.671 3010.13 456.194 3022.65 449.241C3035.17 441.94 3045.08 431.683 3052.38 418.471C3060.03 404.912 3063.85 389.093 3063.85 371.013C3063.85 352.934 3060.03 337.289 3052.38 324.077C3045.08 310.865 3035.17 300.783 3022.65 293.829C3010.13 286.528 2996.58 282.877 2981.97 282.877C2967.37 282.877 2953.81 286.528 2941.29 293.829C2928.78 300.783 2918.7 310.865 2911.05 324.077C2903.75 337.289 2900.1 352.934 2900.1 371.013C2900.1 389.093 2903.75 404.912 2911.05 418.471C2918.7 431.683 2928.78 441.94 2941.29 449.241C2953.81 456.194 2967.37 459.671 2981.97 459.671ZM3359.77 512.344C3323.61 512.344 3290.58 503.826 3260.68 486.79C3230.78 469.754 3207.31 446.286 3190.28 416.385C3173.24 386.485 3164.72 353.456 3164.72 317.297C3164.72 281.139 3173.24 248.11 3190.28 218.209C3207.31 188.309 3230.78 164.841 3260.68 147.805C3290.58 130.769 3323.61 122.25 3359.77 122.25C3387.93 122.25 3413.49 127.466 3436.43 137.896C3459.73 148.326 3480.24 163.45 3497.97 183.268L3456.25 223.425C3443.39 208.127 3429.13 196.827 3413.49 189.526C3397.84 181.877 3379.94 178.053 3359.77 178.053C3334.74 178.053 3311.79 183.789 3290.93 195.263C3270.42 206.736 3254.08 223.077 3241.91 244.285C3229.74 265.146 3223.66 289.483 3223.66 317.297C3223.66 345.112 3229.74 369.623 3241.91 390.831C3254.08 411.692 3270.42 427.859 3290.93 439.332C3311.79 450.805 3334.74 456.542 3359.77 456.542C3401.49 456.542 3436.96 439.158 3466.16 404.39L3508.4 445.069C3490.32 466.277 3468.59 482.792 3443.21 494.613C3417.83 506.434 3390.02 512.344 3359.77 512.344Z" fill="white"/>
<path d="M1875.71 665.582H1916.73L1972.33 812.132H1973.95L2029.54 665.582H2070.57V858.823H2040.61V750.597L2042.23 715.781H2040.61L1985.28 858.823H1960.99L1905.66 715.781H1904.04L1905.66 750.597V858.823H1875.71V665.582ZM2128.25 665.582H2158.48V858.823H2128.25V665.582ZM2255.21 694.46H2201.23V665.582H2339.41V694.46H2285.44V858.823H2255.21V694.46ZM2453.79 762.472H2542.59V787.842H2453.79V762.472ZM2643.64 665.582H2677.38L2707.33 790.001L2710.57 806.734H2712.19L2716.51 790.001L2755.1 665.582H2785.33L2822.04 790.001L2826.35 806.465H2827.97L2831.21 790.001L2861.17 665.582H2894.91L2843.9 858.823H2811.78L2775.08 731.435L2771.03 714.162H2769.41L2764.82 731.435L2726.5 858.823H2695.19L2643.64 665.582ZM2935.08 665.582H3002.01C3013.35 665.582 3023.78 668.101 3033.32 673.139C3043.03 678.177 3050.68 685.194 3056.26 694.19C3062.02 703.186 3064.9 713.352 3064.9 724.688C3064.9 736.023 3062.02 746.189 3056.26 755.185C3050.68 764.182 3043.03 771.199 3033.32 776.237C3023.78 781.275 3013.35 783.794 3002.01 783.794H2965.31V858.823H2935.08V665.582ZM3002.55 755.185C3009.21 755.185 3014.97 753.746 3019.82 750.867C3024.68 747.808 3028.37 743.94 3030.89 739.262C3033.41 734.584 3034.67 729.726 3034.67 724.688C3034.67 719.65 3033.41 714.792 3030.89 710.114C3028.37 705.436 3024.68 701.657 3019.82 698.778C3014.97 695.899 3009.21 694.46 3002.55 694.46H2965.31V755.185H3002.55ZM3178.72 863.141C3164.32 863.141 3151.55 859.903 3140.39 853.425C3129.42 846.948 3120.87 837.772 3114.75 825.897C3108.63 814.021 3105.58 800.257 3105.58 784.603V665.582H3135.53V786.223C3135.53 800.437 3139.22 812.042 3146.6 821.039C3154.16 829.855 3164.86 834.263 3178.72 834.263C3192.57 834.263 3203.19 829.855 3210.56 821.039C3217.94 812.222 3221.63 800.617 3221.63 786.223V665.582H3251.86V784.603C3251.86 800.077 3248.89 813.752 3242.95 825.627C3237.01 837.502 3228.56 846.768 3217.58 853.425C3206.6 859.903 3193.65 863.141 3178.72 863.141Z" fill="white"/>
</svg>
